<svg width="236" height="32" viewBox="0 0 236 32" fill="none" xmlns="http://www.w3.org/2000/svg">
<g clip-path="url(#clip0_2_3)">
<path d="M24.3538 26.0136C24.5714 25.9048 24.898 25.8503 25.3334 25.8503C25.7687 25.8503 26.1497 26.0317 26.4762 26.3946C26.8027 26.7211 26.966 27.102 26.966 27.5374C26.966 28.3357 26.6214 28.916 25.932 29.2789C24.5534 30.0772 23.0657 30.7302 21.4694 31.2381C19.9093 31.746 18.0045 32 15.7551 32C13.542 32 11.4739 31.6371 9.55104 30.9116C7.66441 30.186 6.03176 29.1337 4.65308 27.7551C1.67803 24.8527 0.190498 20.9342 0.190498 16C0.190498 11.102 1.67803 7.18367 4.65308 4.2449C7.5193 1.41497 11.2381 0 15.8095 0C18.0227 0 19.9093 0.272109 21.4694 0.816326C23.0657 1.36054 24.2813 1.86848 25.1157 2.34014C25.9501 2.77551 26.4581 3.13833 26.6395 3.42857C26.8572 3.68255 26.966 4.02721 26.966 4.46258C26.966 4.89796 26.8027 5.29704 26.4762 5.65986C26.1497 5.98639 25.7687 6.14966 25.3334 6.14966C24.9343 6.14966 24.6078 6.09524 24.3538 5.98639C23.1565 5.33333 21.9229 4.8254 20.6531 4.46258C19.4195 4.0635 17.8776 3.86395 16.0272 3.86395C14.1769 3.86395 12.4898 4.19048 10.966 4.84354C9.47849 5.46031 8.22679 6.31292 7.21091 7.40136C5.21543 9.57823 4.23584 12.4445 4.27213 16C4.27213 19.5555 5.25172 22.4218 7.21091 24.5986C9.38778 26.9568 12.381 28.1361 16.1905 28.1361C17.932 28.1361 19.4195 27.9547 20.6531 27.5918C21.9229 27.1928 23.1565 26.6667 24.3538 26.0136ZM56.4082 0.217687C56.9524 0.217687 57.4241 0.417234 57.8232 0.816326C58.2585 1.21542 58.4762 1.70521 58.4762 2.28571V19.9184C58.4762 23.8004 57.0793 26.848 54.2857 29.0612C51.8912 31.0204 49.0068 32 45.6327 32C42.2222 32 39.3378 31.0204 36.9796 29.0612C34.2222 26.8119 32.8436 23.7642 32.8436 19.9184V2.28571C32.8436 1.7415 33.0432 1.26984 33.4422 0.870748C33.8412 0.435374 34.3129 0.217687 34.8572 0.217687C35.4014 0.217687 35.8731 0.417234 36.2721 0.816326C36.7075 1.21542 36.9252 1.70521 36.9252 2.28571V20.0272C36.9252 22.6758 37.8323 24.7438 39.6463 26.2313C41.3153 27.6099 43.3106 28.2993 45.6327 28.2993C47.9909 28.2993 50.0045 27.6099 51.6735 26.2313C53.4875 24.7075 54.3946 22.6395 54.3946 20.0272V2.28571C54.3946 1.7415 54.5942 1.26984 54.9932 0.870748C55.3922 0.435374 55.864 0.217687 56.4082 0.217687ZM89.3334 8.54422C89.3334 11.7732 87.882 14.0408 84.9796 15.3469C87.8095 16.2902 89.678 17.8685 90.5851 20.0816C90.9116 20.9161 91.0749 21.9139 91.0749 23.0748C91.0749 24.1996 90.8572 25.3061 90.4218 26.3946C90.0228 27.4466 89.3697 28.3718 88.4626 29.1701C86.5398 30.7664 83.5827 31.5646 79.5919 31.5646H68.8163C68.2721 31.5646 67.8004 31.365 67.4014 30.966C67.0024 30.567 66.8027 30.0952 66.8027 29.551V2.5034C66.8027 1.95918 67.0024 1.48753 67.4014 1.08844C67.8004 0.653061 68.2721 0.435374 68.8163 0.435374H79.3742C82.6395 0.435374 85.1065 1.19728 86.7755 2.72109C88.4807 4.20861 89.3334 6.14966 89.3334 8.54422ZM85.4694 8.81633C85.4694 7.43765 84.9071 6.33106 83.7823 5.4966C82.6939 4.66214 81.1157 4.2449 79.0476 4.2449H70.8844V13.8776H78.2857C82.1316 13.8776 84.4173 12.8617 85.1429 10.8299C85.3606 10.2132 85.4694 9.54194 85.4694 8.81633ZM79.2109 27.7551C83.4194 27.7551 85.9411 26.7392 86.7755 24.7075C87.0296 24.0544 87.1565 23.365 87.1565 22.6395C87.1565 20.8617 86.4854 19.5737 85.1429 18.7755C83.8004 17.941 81.8412 17.5238 79.2653 17.5238H70.8844V27.7551H79.2109ZM117.578 27.7551C118.086 27.7551 118.521 27.9547 118.884 28.3537C119.283 28.7166 119.483 29.1701 119.483 29.7143C119.483 30.2221 119.283 30.6575 118.884 31.0204C118.521 31.3833 118.086 31.5646 117.578 31.5646H99.6735C99.1293 31.5646 98.6575 31.365 98.2585 30.966C97.8595 30.567 97.6599 30.0952 97.6599 29.551V2.5034C97.6599 1.95918 97.8595 1.48753 98.2585 1.08844C98.6575 0.653061 99.1293 0.435374 99.6735 0.435374H117.578C118.086 0.435374 118.521 0.634921 118.884 1.03401C119.283 1.39683 119.483 1.8322 119.483 2.34014C119.483 2.84807 119.283 3.30159 118.884 3.70068C118.521 4.0635 118.086 4.2449 117.578 4.2449H101.742V14.0952H115.946C116.453 14.0952 116.889 14.2766 117.252 14.6395C117.651 15.0023 117.85 15.4558 117.85 16C117.85 16.5079 117.669 16.9615 117.306 17.3605C116.943 17.7234 116.49 17.9048 115.946 17.9048H101.742V27.7551H117.578ZM150.34 29.7687C150.34 30.3129 150.141 30.7847 149.742 31.1837C149.379 31.5827 148.889 31.7823 148.272 31.7823C147.692 31.7823 147.202 31.601 146.803 31.2381C146.44 30.8752 146.259 30.3854 146.259 29.7687V28.4082C146.259 26.0136 145.986 24.254 145.442 23.1293C144.934 22.0045 144.209 21.1156 143.265 20.4626C142.358 19.7732 141.052 19.4286 139.347 19.4286H130.15V29.7687C130.15 30.3129 129.95 30.7847 129.551 31.1837C129.152 31.5827 128.662 31.7823 128.082 31.7823C127.537 31.7823 127.066 31.5827 126.667 31.1837C126.268 30.7847 126.068 30.3129 126.068 29.7687V2.5034C126.068 1.95918 126.268 1.48753 126.667 1.08844C127.066 0.653061 127.537 0.435374 128.082 0.435374H138.476C142.54 0.435374 145.624 1.30612 147.728 3.04762C149.687 4.68027 150.649 6.82085 150.612 9.46939C150.612 11.1746 150.122 12.7891 149.143 14.3129C148.2 15.8004 146.73 16.8707 144.735 17.5238C146.875 18.068 148.435 19.6281 149.415 22.2041C150.068 23.8731 150.377 25.7234 150.34 27.7551V29.7687ZM138.204 15.5646C140.707 15.5646 142.721 15.093 144.245 14.1497C145.769 13.1701 146.531 11.7188 146.531 9.79592C146.531 8.01813 145.932 6.67574 144.735 5.76871C143.32 4.75283 141.07 4.2449 137.986 4.2449H130.15V15.5646H138.204ZM177.225 1.2517C177.66 0.562358 178.204 0.217687 178.857 0.217687C179.547 0.217687 180.073 0.417234 180.435 0.816326C180.798 1.21542 180.98 1.66893 180.98 2.17687C180.98 2.6848 180.853 3.12017 180.599 3.48299L169.932 18.3946V29.7687C169.932 30.3129 169.732 30.7847 169.333 31.1837C168.934 31.5827 168.463 31.7823 167.918 31.7823C167.374 31.7823 166.884 31.5827 166.449 31.1837C166.05 30.7847 165.85 30.3129 165.85 29.7687V18.3946L155.184 3.48299C154.966 3.12017 154.857 2.6848 154.857 2.17687C154.857 1.66893 155.02 1.21542 155.347 0.816326C155.71 0.417234 156.218 0.217687 156.871 0.217687C157.56 0.217687 158.141 0.562358 158.612 1.2517L167.918 14.8027L177.225 1.2517ZM195.946 28.1905C201.134 28.1905 203.746 26.467 203.782 23.0204C203.782 21.6054 202.785 20.4807 200.789 19.6463C199.918 19.2834 198.902 18.9569 197.742 18.6667C196.617 18.3764 195.474 18.068 194.313 17.7415C193.152 17.415 191.991 17.0521 190.83 16.6531C189.669 16.2177 188.653 15.6735 187.782 15.0204C185.823 13.5329 184.825 11.5737 184.789 9.14286C184.789 6.53061 185.787 4.39003 187.782 2.72109C189.923 0.90703 192.789 0 196.381 0C199.646 0 202.585 0.489796 205.197 1.46939C206.032 1.75964 206.467 2.35827 206.503 3.26531C206.503 3.70068 206.34 4.11792 206.014 4.51701C205.723 4.91609 205.379 5.11565 204.98 5.11565C204.617 5.11565 204.109 5.0068 203.456 4.78912C201.497 4.09977 199.283 3.7551 196.816 3.7551C194.531 3.7551 192.644 4.19048 191.156 5.06122C189.633 5.96826 188.871 7.21996 188.871 8.81633C188.871 10.4853 189.85 11.7732 191.81 12.6803C192.717 13.0794 193.732 13.424 194.857 13.7143C195.982 13.9683 197.143 14.2404 198.34 14.5306C199.537 14.8209 200.68 15.1837 201.769 15.619C202.894 16.0181 203.909 16.5261 204.816 17.1429C206.776 18.5578 207.773 20.6259 207.81 23.3469C207.81 25.8867 206.776 27.9547 204.707 29.551C202.603 31.1837 199.828 32 196.381 32C192.608 32 189.07 31.2925 185.769 29.8776C185.442 29.7324 185.152 29.4966 184.898 29.1701C184.644 28.8072 184.517 28.4082 184.517 27.9728C184.517 27.5374 184.68 27.1384 185.007 26.7755C185.333 26.3765 185.696 26.1769 186.095 26.1769C186.531 26.1769 187.057 26.3221 187.673 26.6122C188.327 26.9024 189.379 27.2472 190.83 27.6463C192.281 28.0091 193.986 28.1905 195.946 28.1905ZM233.879 27.7551C234.386 27.7551 234.821 27.9547 235.185 28.3537C235.583 28.7166 235.781 29.1701 235.781 29.7143C235.781 30.2221 235.583 30.6575 235.185 31.0204C234.821 31.3833 234.386 31.5646 233.879 31.5646H215.973C215.429 31.5646 214.957 31.365 214.558 30.966C214.159 30.567 213.959 30.0952 213.959 29.551V2.5034C213.959 1.95918 214.159 1.48753 214.558 1.08844C214.957 0.653061 215.429 0.435374 215.973 0.435374H233.879C234.386 0.435374 234.821 0.634921 235.185 1.03401C235.583 1.39683 235.781 1.8322 235.781 2.34014C235.781 2.84807 235.583 3.30159 235.185 3.70068C234.821 4.0635 234.386 4.2449 233.879 4.2449H218.04V14.0952H232.246C232.753 14.0952 233.189 14.2766 233.552 14.6395C233.95 15.0023 234.149 15.4558 234.149 16C234.149 16.5079 233.968 16.9615 233.604 17.3605C233.243 17.7234 232.79 17.9048 232.246 17.9048H218.04V27.7551H233.879Z" fill="white"/>
</g>
<defs>
<clipPath id="clip0_2_3">
<rect width="235.973" height="32" fill="white"/>
</clipPath>
</defs>
</svg>
