<svg width="214" height="38" viewBox="0 0 214 38" fill="none" xmlns="http://www.w3.org/2000/svg">
<path d="M0.32 30L4.76 1.8H24.08L23.32 6.64H9.92L8.88 13.24H21.4L20.64 18.12H8.12L7 25.16H20.36L19.6 30H0.32ZM24.0588 30L27.1788 10.36H33.0988L32.6188 13.28C33.3921 12.1333 34.3254 11.2933 35.4188 10.76C36.5121 10.2267 37.6454 9.96 38.8188 9.96C41.5121 9.96 43.2988 11.2 44.1788 13.68C45.6454 11.2 47.9254 9.96 51.0188 9.96C53.0721 9.96 54.6454 10.6267 55.7388 11.96C56.8588 13.2933 57.1921 15.4133 56.7388 18.32L54.8988 30H48.8588L50.6988 18.36C51.0721 15.88 50.3388 14.64 48.4988 14.64C47.3521 14.64 46.4054 15.0667 45.6588 15.92C44.9121 16.7733 44.4188 17.9733 44.1788 19.52L42.4988 30H36.4588L38.2988 18.36C38.6988 15.88 37.9654 14.64 36.0988 14.64C34.9788 14.64 34.0321 15.0667 33.2588 15.92C32.5121 16.7733 32.0188 17.9733 31.7788 19.52L30.0988 30H24.0588ZM58.4056 37.2L62.6456 10.36H68.5656L68.1256 13.24C68.8456 12.2 69.7523 11.4 70.8456 10.84C71.9656 10.2533 73.2056 9.96 74.5656 9.96C76.779 9.96 78.5523 10.72 79.8856 12.24C81.219 13.76 81.8856 15.8267 81.8856 18.44C81.8856 20.7067 81.4856 22.7467 80.6856 24.56C79.8856 26.3733 78.739 27.8133 77.2456 28.88C75.779 29.92 74.0323 30.44 72.0056 30.44C70.6723 30.44 69.4723 30.16 68.4056 29.6C67.3656 29.0133 66.579 28.1733 66.0456 27.08L64.4456 37.2H58.4056ZM70.7656 25.92C72.3656 25.92 73.6056 25.24 74.4856 23.88C75.3656 22.52 75.8056 20.8133 75.8056 18.76C75.8056 17.3733 75.4723 16.32 74.8056 15.6C74.1656 14.8533 73.2723 14.48 72.1256 14.48C70.5256 14.48 69.2856 15.16 68.4056 16.52C67.5256 17.88 67.0856 19.5733 67.0856 21.6C67.0856 22.9867 67.4056 24.0533 68.0456 24.8C68.7123 25.5467 69.619 25.92 70.7656 25.92ZM91.4197 30.44C88.9664 30.44 87.2064 29.7733 86.1397 28.44C85.073 27.08 84.7397 25.12 85.1397 22.56L88.4197 1.8H94.4597L91.1797 22.48C90.8864 24.5333 91.6597 25.56 93.4997 25.56C93.7664 25.56 94.0464 25.5467 94.3397 25.52C94.633 25.4933 94.9264 25.4667 95.2197 25.44L94.4197 30.04C93.5397 30.3067 92.5397 30.44 91.4197 30.44ZM107.265 30.44C104.225 30.44 101.851 29.6267 100.145 28C98.4647 26.3467 97.6247 24.1467 97.6247 21.4C97.6247 18.9733 98.1447 16.9067 99.1847 15.2C100.225 13.4933 101.598 12.2 103.305 11.32C105.038 10.4133 106.891 9.96 108.865 9.96C111.905 9.96 114.278 10.7867 115.985 12.44C117.691 14.0667 118.545 16.24 118.545 18.96C118.545 21.4133 118.011 23.4933 116.945 25.2C115.905 26.9067 114.531 28.2133 112.825 29.12C111.118 30 109.265 30.44 107.265 30.44ZM107.425 25.92C108.998 25.92 110.225 25.24 111.105 23.88C112.011 22.52 112.465 20.8133 112.465 18.76C112.465 17.3733 112.131 16.32 111.465 15.6C110.798 14.8533 109.891 14.48 108.745 14.48C107.145 14.48 105.905 15.16 105.025 16.52C104.145 17.88 103.705 19.5733 103.705 21.6C103.705 22.9867 104.025 24.0533 104.665 24.8C105.331 25.5467 106.251 25.92 107.425 25.92ZM120.511 37.2L125.631 28.92L120.471 10.36H126.551L129.471 22.84L136.551 10.36H142.791L126.671 37.2H120.511ZM160.35 6.56L161.23 0.919998H167.71L166.79 6.56H160.35ZM143.35 30L145.79 14.88H142.07L142.75 10.36H146.47L146.59 9.76C146.964 7.36 147.937 5.45333 149.51 4.04C151.084 2.62667 153.537 1.84 156.87 1.68L159.19 1.56L159.03 5.96L157.15 6.08C155.71 6.16 154.63 6.48 153.91 7.04C153.217 7.57333 152.79 8.41333 152.63 9.56L152.51 10.36H165.95L162.83 30H156.79L159.19 14.88H151.83L149.39 30H143.35ZM178.135 30.44C176.082 30.44 174.295 30.0667 172.775 29.32C171.255 28.5467 170.082 27.4933 169.255 26.16C168.429 24.8 168.015 23.2133 168.015 21.4C168.015 19.16 168.482 17.1867 169.415 15.48C170.375 13.7467 171.682 12.4 173.335 11.44C175.015 10.4533 176.922 9.96 179.055 9.96C181.242 9.96 182.989 10.44 184.295 11.4C185.602 12.3333 186.509 13.6 187.015 15.2C187.522 16.7733 187.655 18.52 187.415 20.44L187.255 21.48H173.615C173.642 22.8933 174.095 23.9867 174.975 24.76C175.855 25.5333 177.109 25.92 178.735 25.92C179.855 25.92 180.935 25.76 181.975 25.44C183.042 25.12 183.989 24.6533 184.815 24.04L186.135 28C185.175 28.7467 183.989 29.3467 182.575 29.8C181.162 30.2267 179.682 30.44 178.135 30.44ZM179.015 13.96C177.575 13.96 176.455 14.4 175.655 15.28C174.855 16.1333 174.322 17.16 174.055 18.36H182.775C182.855 17.1067 182.589 16.0667 181.975 15.24C181.389 14.3867 180.402 13.96 179.015 13.96ZM197.248 30.44C195.035 30.44 193.262 29.68 191.928 28.16C190.595 26.6133 189.928 24.5333 189.928 21.92C189.928 19.6533 190.328 17.6267 191.128 15.84C191.928 14.0267 193.062 12.6 194.528 11.56C196.022 10.4933 197.768 9.96 199.768 9.96C201.128 9.96 202.328 10.2533 203.368 10.84C204.435 11.4 205.235 12.24 205.768 13.36L207.608 1.8H213.648L209.168 30H203.248L203.728 27.04C203.008 28.1067 202.088 28.9467 200.968 29.56C199.848 30.1467 198.608 30.44 197.248 30.44ZM199.688 25.92C201.288 25.92 202.528 25.24 203.408 23.88C204.288 22.52 204.728 20.8133 204.728 18.76C204.728 17.3733 204.395 16.32 203.728 15.6C203.088 14.8533 202.195 14.48 201.048 14.48C199.448 14.48 198.208 15.16 197.328 16.52C196.448 17.88 196.008 19.5733 196.008 21.6C196.008 22.9867 196.328 24.0533 196.968 24.8C197.635 25.5467 198.542 25.92 199.688 25.92Z" fill="white"/>
</svg>
