<svg width="512" height="128" viewBox="0 0 512 128" fill="none" xmlns="http://www.w3.org/2000/svg">
<rect width="128" height="128" rx="64" fill="#333333"/>
<path d="M34.904 93L44.672 30.96H87.176L85.504 41.608H56.024L53.736 56.128H81.28L79.608 66.864H52.064L49.6 82.352H78.992L77.32 93H34.904ZM87.1293 93L93.9933 49.792H107.017L105.961 56.216C107.663 53.6933 109.716 51.8453 112.121 50.672C114.527 49.4987 117.02 48.912 119.601 48.912C125.527 48.912 129.457 51.64 131.393 57.096C134.62 51.64 139.636 48.912 146.441 48.912C150.959 48.912 154.42 50.3787 156.825 53.312C159.289 56.2453 160.023 60.9093 159.025 67.304L154.977 93H141.689L145.737 67.392C146.559 61.936 144.945 59.208 140.897 59.208C138.375 59.208 136.292 60.1467 134.649 62.024C133.007 63.9013 131.921 66.5413 131.393 69.944L127.697 93H114.409L118.457 67.392C119.337 61.936 117.724 59.208 113.617 59.208C111.153 59.208 109.071 60.1467 107.369 62.024C105.727 63.9013 104.641 66.5413 104.113 69.944L100.417 93H87.1293ZM162.692 108.84L172.02 49.792H185.044L184.076 56.128C185.66 53.84 187.655 52.08 190.06 50.848C192.524 49.5573 195.252 48.912 198.244 48.912C203.114 48.912 207.015 50.584 209.948 53.928C212.882 57.272 214.348 61.8187 214.348 67.568C214.348 72.5547 213.468 77.0427 211.708 81.032C209.948 85.0213 207.426 88.1893 204.14 90.536C200.914 92.824 197.071 93.968 192.612 93.968C189.679 93.968 187.039 93.352 184.692 92.12C182.404 90.8293 180.674 88.9813 179.5 86.576L175.98 108.84H162.692ZM189.884 84.024C193.404 84.024 196.132 82.528 198.068 79.536C200.004 76.544 200.972 72.7893 200.972 68.272C200.972 65.2213 200.239 62.904 198.772 61.32C197.364 59.6773 195.399 58.856 192.876 58.856C189.356 58.856 186.628 60.352 184.692 63.344C182.756 66.336 181.788 70.0613 181.788 74.52C181.788 77.5707 182.492 79.9173 183.9 81.56C185.367 83.2027 187.362 84.024 189.884 84.024ZM235.323 93.968C229.926 93.968 226.054 92.5013 223.707 89.568C221.361 86.576 220.627 82.264 221.507 76.632L228.723 30.96H242.011L234.795 76.456C234.15 80.9733 235.851 83.232 239.899 83.232C240.486 83.232 241.102 83.2027 241.747 83.144C242.393 83.0853 243.038 83.0267 243.683 82.968L241.923 93.088C239.987 93.6747 237.787 93.968 235.323 93.968ZM270.182 93.968C263.494 93.968 258.273 92.1787 254.518 88.6C250.822 84.9627 248.974 80.1227 248.974 74.08C248.974 68.7413 250.118 64.1947 252.406 60.44C254.694 56.6853 257.716 53.84 261.47 51.904C265.284 49.9093 269.361 48.912 273.702 48.912C280.39 48.912 285.612 50.7307 289.366 54.368C293.121 57.9467 294.998 62.728 294.998 68.712C294.998 74.1093 293.825 78.6853 291.478 82.44C289.19 86.1947 286.169 89.0693 282.414 91.064C278.66 93 274.582 93.968 270.182 93.968ZM270.534 84.024C273.996 84.024 276.694 82.528 278.63 79.536C280.625 76.544 281.622 72.7893 281.622 68.272C281.622 65.2213 280.889 62.904 279.422 61.32C277.956 59.6773 275.961 58.856 273.438 58.856C269.918 58.856 267.19 60.352 265.254 63.344C263.318 66.336 262.35 70.0613 262.35 74.52C262.35 77.5707 263.054 79.9173 264.462 81.56C265.929 83.2027 267.953 84.024 270.534 84.024ZM299.323 108.84L310.587 90.624L299.235 49.792H312.611L319.035 77.248L334.611 49.792H348.339L312.875 108.84H299.323ZM386.971 41.432L388.907 29.024H403.163L401.139 41.432H386.971ZM349.571 93L354.939 59.736H346.755L348.251 49.792H356.435L356.699 48.472C357.52 43.192 359.661 38.9973 363.123 35.888C366.584 32.7787 371.981 31.048 379.315 30.696L384.419 30.432L384.067 40.112L379.931 40.376C376.763 40.552 374.387 41.256 372.803 42.488C371.277 43.6613 370.339 45.5093 369.987 48.032L369.723 49.792H399.291L392.427 93H379.139L384.419 59.736H368.227L362.859 93H349.571ZM426.098 93.968C421.58 93.968 417.65 93.1467 414.306 91.504C410.962 89.8027 408.38 87.4853 406.562 84.552C404.743 81.56 403.834 78.0693 403.834 74.08C403.834 69.152 404.86 64.8107 406.914 61.056C409.026 57.2427 411.9 54.28 415.538 52.168C419.234 49.9973 423.428 48.912 428.122 48.912C432.932 48.912 436.775 49.968 439.65 52.08C442.524 54.1333 444.519 56.92 445.634 60.44C446.748 63.9013 447.042 67.744 446.514 71.968L446.162 74.256H416.154C416.212 77.3653 417.21 79.7707 419.146 81.472C421.082 83.1733 423.839 84.024 427.418 84.024C429.882 84.024 432.258 83.672 434.546 82.968C436.892 82.264 438.975 81.2373 440.794 79.888L443.698 88.6C441.586 90.2427 438.975 91.5627 435.866 92.56C432.756 93.4987 429.5 93.968 426.098 93.968ZM428.034 57.712C424.866 57.712 422.402 58.68 420.642 60.616C418.882 62.4933 417.708 64.752 417.122 67.392H436.306C436.482 64.6347 435.895 62.3467 434.546 60.528C433.255 58.6507 431.084 57.712 428.034 57.712ZM468.147 93.968C463.277 93.968 459.376 92.296 456.443 88.952C453.509 85.5493 452.043 80.9733 452.043 75.224C452.043 70.2373 452.923 65.7787 454.683 61.848C456.443 57.8587 458.936 54.72 462.163 52.432C465.448 50.0853 469.291 48.912 473.691 48.912C476.683 48.912 479.323 49.5573 481.611 50.848C483.957 52.08 485.717 53.928 486.891 56.392L490.939 30.96H504.227L494.371 93H481.347L482.403 86.488C480.819 88.8347 478.795 90.6827 476.331 92.032C473.867 93.3227 471.139 93.968 468.147 93.968ZM473.515 84.024C477.035 84.024 479.763 82.528 481.699 79.536C483.635 76.544 484.603 72.7893 484.603 68.272C484.603 65.2213 483.869 62.904 482.403 61.32C480.995 59.6773 479.029 58.856 476.507 58.856C472.987 58.856 470.259 60.352 468.323 63.344C466.387 66.336 465.419 70.0613 465.419 74.52C465.419 77.5707 466.123 79.9173 467.531 81.56C468.997 83.2027 470.992 84.024 473.515 84.024Z" fill="#DD0000"/>
</svg>
