<svg width="473" height="73" viewBox="0 0 473 73" fill="none" xmlns="http://www.w3.org/2000/svg">
<path d="M0.078125 57.2188V2.80469C0.078125 2.25781 0.338542 1.98438 0.859375 1.98438H39.6094C40.1302 1.98438 40.3906 2.25781 40.3906 2.80469V6.78906C40.3906 7.33594 40.1302 7.60938 39.6094 7.60938H7.26562V26.7891H33.9844C34.5312 26.7891 34.8047 27.0625 34.8047 27.6094V31.5938C34.8047 32.1406 34.5312 32.4141 33.9844 32.4141H7.26562V52.4141H39.6094C40.1302 52.4141 40.3906 52.6745 40.3906 53.1953V57.2188C40.3906 57.7396 40.1302 58 39.6094 58H0.859375C0.338542 58 0.078125 57.7396 0.078125 57.2188ZM51.6406 57.2188V16.0078C51.6406 15.4609 51.901 15.1875 52.4219 15.1875H56.8359C57.3568 15.1875 57.6432 15.4609 57.6953 16.0078L58.4375 20.3828C58.5938 20.2266 58.8021 20.0052 59.0625 19.7188C59.349 19.4323 59.9219 18.9115 60.7812 18.1562C61.6667 17.401 62.5911 16.75 63.5547 16.2031C66.0547 14.7448 68.8151 14.0156 71.8359 14.0156C74.8568 14.0156 77.5391 14.7448 79.8828 16.2031C82.2266 17.6615 84.0104 19.7318 85.2344 22.4141C85.9896 21.2943 86.9141 20.1875 88.0078 19.0938C89.1016 18 90.7682 16.8802 93.0078 15.7344C95.2474 14.5885 97.5911 14.0156 100.039 14.0156C104.779 14.0156 108.555 15.6172 111.367 18.8203C114.206 21.9974 115.625 26.5286 115.625 32.4141V57.2188C115.625 57.7396 115.365 58 114.844 58H109.219C108.698 58 108.438 57.7396 108.438 57.2188V32.4141C108.438 28.1953 107.604 25.0052 105.938 22.8438C104.297 20.6823 102.305 19.6016 99.9609 19.6016C97.6172 19.6016 95.4167 20.3307 93.3594 21.7891C91.3021 23.2214 89.7656 24.5755 88.75 25.8516C87.7344 27.1276 87.2266 27.8438 87.2266 28V57.2188C87.2266 57.7396 86.9661 58 86.4453 58H80.8203C80.2995 58 80.0391 57.7396 80.0391 57.2188V32.4141C80.0391 28.1953 79.2057 25.0052 77.5391 22.8438C75.8984 20.6823 73.9062 19.6016 71.5625 19.6016C69.2188 19.6016 67.0182 20.3307 64.9609 21.7891C62.9036 23.2214 61.3672 24.5755 60.3516 25.8516C59.3359 27.1276 58.8281 27.8438 58.8281 28V57.2188C58.8281 57.7396 58.5677 58 58.0469 58H52.4219C51.901 58 51.6406 57.7396 51.6406 57.2188ZM130.859 70.3828V16.0078C130.859 15.487 131.12 15.2135 131.641 15.1875H136.055C136.576 15.1875 136.862 15.4609 136.914 16.0078L137.656 20.3828C137.943 19.9401 138.594 19.276 139.609 18.3906C140.651 17.4792 141.641 16.75 142.578 16.2031C145 14.7448 147.76 14.0156 150.859 14.0156C156.562 14.0156 161.25 15.9557 164.922 19.8359C168.62 23.6901 170.469 29.263 170.469 36.5547C170.469 43.8464 168.568 49.4453 164.766 53.3516C160.99 57.2578 156.081 59.2109 150.039 59.2109C148.008 59.2109 145.99 59.0026 143.984 58.5859C142.005 58.1953 140.508 57.7917 139.492 57.375L138.047 56.7891V70.3828C138.047 70.9036 137.786 71.1771 137.266 71.2031H131.641C131.12 71.1771 130.859 70.9036 130.859 70.3828ZM138.047 51.2031C141.51 52.7917 145.299 53.5859 149.414 53.5859C153.529 53.5859 156.862 52.1797 159.414 49.3672C161.966 46.5286 163.242 42.2969 163.242 36.6719C163.242 31.0469 162.07 26.8021 159.727 23.9375C157.383 21.0469 154.297 19.6016 150.469 19.6016C146.745 19.6016 143.346 21.3984 140.273 24.9922C138.789 26.7109 138.047 27.7135 138.047 28V51.2031ZM183.281 57.2188V2.80469C183.281 2.25781 183.542 1.98438 184.062 1.98438H189.688C190.208 1.98438 190.469 2.25781 190.469 2.80469V57.2188C190.469 57.7396 190.208 58 189.688 58H184.062C183.542 58 183.281 57.7396 183.281 57.2188ZM224.062 59.2109C217.839 59.2109 212.812 57.2578 208.984 53.3516C205.182 49.4193 203.281 43.8203 203.281 36.5547C203.281 29.263 205.182 23.6901 208.984 19.8359C212.812 15.9557 217.839 14.0156 224.062 14.0156C230.312 14.0156 235.339 15.9557 239.141 19.8359C242.969 23.6901 244.883 29.263 244.883 36.5547C244.883 43.8203 242.969 49.4193 239.141 53.3516C235.339 57.2578 230.312 59.2109 224.062 59.2109ZM224.062 19.6016C220.026 19.6016 216.745 21.0208 214.219 23.8594C211.719 26.6719 210.469 30.8906 210.469 36.5156C210.469 42.1406 211.719 46.3984 214.219 49.2891C216.745 52.1536 220.026 53.5859 224.062 53.5859C228.125 53.5859 231.406 52.1536 233.906 49.2891C236.432 46.3984 237.695 42.1406 237.695 36.5156C237.695 30.8906 236.432 26.6719 233.906 23.8594C231.406 21.0208 228.125 19.6016 224.062 19.6016ZM250.625 16.0078C250.573 15.9036 250.547 15.7995 250.547 15.6953C250.547 15.3568 250.781 15.1875 251.25 15.1875H256.641C257.266 15.1875 257.656 15.4609 257.812 16.0078L266.719 41.5938C267.891 44.901 269.232 47.2708 270.742 48.7031C272.253 50.1094 274.323 50.8125 276.953 50.8125L286.133 16.0078C286.289 15.4609 286.693 15.1875 287.344 15.1875H292.695C293.19 15.1875 293.438 15.3568 293.438 15.6953C293.438 15.7995 293.411 15.9036 293.359 16.0078L282.695 56.3984C281.211 61.9974 279.232 66.0599 276.758 68.5859C274.31 71.138 271.094 72.4141 267.109 72.4141C264.323 72.4141 261.758 72.0104 259.414 71.2031L258.32 70.8125C257.773 70.526 257.5 70.1745 257.5 69.7578V65.8516C257.5 65.2005 257.773 64.9792 258.32 65.1875C260.977 66.2552 263.581 66.7891 266.133 66.7891C268.711 66.7891 270.677 66.0469 272.031 64.5625C273.385 63.0781 274.544 60.3568 275.508 56.3984C271.341 56.3984 268.112 55.3047 265.82 53.1172C263.529 50.9297 261.419 47.0625 259.492 41.5156L250.625 16.0078Z" fill="black"/>
<path d="M302.227 57.2188V18.3906C302.227 13.0521 303.828 8.79427 307.031 5.61719C310.234 2.41406 314.766 0.8125 320.625 0.8125C324.896 0.8125 328.372 1.45052 331.055 2.72656C331.576 2.98698 331.836 3.32552 331.836 3.74219V7.6875C331.836 8.33854 331.576 8.54688 331.055 8.3125C328.398 7.03646 325.195 6.39844 321.445 6.39844C313.451 6.39844 309.453 10.3958 309.453 18.3906V21.2031H325.742C326.263 21.2031 326.536 21.4635 326.562 21.9844V26.0078C326.562 26.5286 326.289 26.7891 325.742 26.7891H309.453V57.2188C309.453 57.7396 309.18 58 308.633 58H303.047C302.5 58 302.227 57.7396 302.227 57.2188ZM339.023 3.58594C339.023 2.51823 339.557 1.98438 340.625 1.98438H345.82C346.419 1.98438 346.836 2.11458 347.07 2.375C347.305 2.60938 347.422 3.01302 347.422 3.58594V8.78125C347.422 9.38021 347.305 9.79688 347.07 10.0312C346.836 10.2656 346.419 10.3828 345.82 10.3828H340.625C340.052 10.3828 339.635 10.2656 339.375 10.0312C339.141 9.79688 339.023 9.38021 339.023 8.78125V3.58594ZM339.609 57.2188V16.0078C339.609 15.4609 339.87 15.1875 340.391 15.1875H345.977C346.523 15.1875 346.797 15.4609 346.797 16.0078V57.2188C346.797 57.7396 346.523 58 345.977 58H340.391C339.87 58 339.609 57.7396 339.609 57.2188ZM379.609 59.2891C373.802 59.2891 368.984 57.3229 365.156 53.3906C361.354 49.4323 359.453 43.8203 359.453 36.5547C359.453 29.263 361.354 23.6901 365.156 19.8359C368.984 15.9557 373.971 14.0156 380.117 14.0156C386.289 14.0156 391.315 15.9948 395.195 19.9531C399.102 23.8854 401.055 29.1068 401.055 35.6172V37.6094C401.055 38.6771 400.521 39.2109 399.453 39.2109H366.719C367.161 44.0547 368.594 47.6745 371.016 50.0703C373.438 52.4661 376.51 53.6641 380.234 53.6641C386.12 53.6641 390.391 51.2682 393.047 46.4766C393.359 45.9557 393.685 45.6953 394.023 45.6953H399.062C399.74 45.6953 400 46.0078 399.844 46.6328C398.776 50.487 396.589 53.5599 393.281 55.8516C389.974 58.1432 385.417 59.2891 379.609 59.2891ZM366.719 33.5859H393.867C393.633 29.3932 392.201 26.0208 389.57 23.4688C386.94 20.8906 383.802 19.6016 380.156 19.6016C376.536 19.6016 373.503 20.7865 371.055 23.1562C368.607 25.526 367.161 29.0026 366.719 33.5859ZM430.312 59.2109C424.609 59.2109 419.909 57.2839 416.211 53.4297C412.539 49.5495 410.703 43.9635 410.703 36.6719C410.703 29.3542 412.591 23.7552 416.367 19.875C420.169 15.9688 425.078 14.0156 431.094 14.0156C433.125 14.0156 435.143 14.2109 437.148 14.6016C439.154 14.9922 440.625 15.3828 441.562 15.7734L443.086 16.3984V2.80469C443.086 2.28385 443.359 2.01042 443.906 1.98438H449.492C450.013 1.98438 450.286 2.25781 450.312 2.80469V57.2188C450.312 57.7396 450.039 58 449.492 58H445.117C444.596 58 444.297 57.7396 444.219 57.2188L443.516 52.8047C443.203 53.2474 442.526 53.9245 441.484 54.8359C440.469 55.7214 439.492 56.4375 438.555 56.9844C436.133 58.4688 433.385 59.2109 430.312 59.2109ZM431.719 19.6016C427.63 19.6016 424.297 21.0208 421.719 23.8594C419.167 26.6719 417.891 30.8906 417.891 36.5156C417.891 42.1406 419.062 46.3984 421.406 49.2891C423.75 52.1536 426.849 53.5859 430.703 53.5859C434.349 53.5859 437.747 51.7891 440.898 48.1953C442.357 46.5286 443.086 45.526 443.086 45.1875V21.9844C439.622 20.3958 435.833 19.6016 431.719 19.6016ZM463.906 51.5938C463.906 50.526 464.44 49.9922 465.508 49.9922H470.703C471.302 49.9922 471.719 50.1224 471.953 50.3828C472.188 50.6172 472.305 51.0208 472.305 51.5938V56.7891C472.305 57.388 472.188 57.8047 471.953 58.0391C471.719 58.2734 471.302 58.3906 470.703 58.3906H465.508C464.935 58.3906 464.518 58.2734 464.258 58.0391C464.023 57.8047 463.906 57.388 463.906 56.7891V51.5938Z" fill="#EE4444"/>
</svg>
