<svg width="43" height="8" viewBox="0 0 43 8" fill="none" xmlns="http://www.w3.org/2000/svg">
<path d="M0.264 6L1.152 0.36H5.016L4.864 1.328H2.184L1.976 2.648H4.48L4.328 3.624H1.824L1.6 5.032H4.272L4.12 6H0.264ZM5.01175 6L5.63575 2.072H6.81975L6.72375 2.656C6.87842 2.42667 7.06508 2.25867 7.28375 2.152C7.50242 2.04533 7.72908 1.992 7.96375 1.992C8.50242 1.992 8.85975 2.24 9.03575 2.736C9.32908 2.24 9.78508 1.992 10.4038 1.992C10.8144 1.992 11.1291 2.12533 11.3478 2.392C11.5718 2.65867 11.6384 3.08267 11.5478 3.664L11.1798 6H9.97175L10.3398 3.672C10.4144 3.176 10.2678 2.928 9.89975 2.928C9.67042 2.928 9.48108 3.01333 9.33175 3.184C9.18242 3.35467 9.08375 3.59467 9.03575 3.904L8.69975 6H7.49175L7.85975 3.672C7.93975 3.176 7.79308 2.928 7.41975 2.928C7.19575 2.928 7.00642 3.01333 6.85175 3.184C6.70242 3.35467 6.60375 3.59467 6.55575 3.904L6.21975 6H5.01175ZM11.8811 7.44L12.7291 2.072H13.9131L13.8251 2.648C13.9691 2.44 14.1505 2.28 14.3691 2.168C14.5931 2.05067 14.8411 1.992 15.1131 1.992C15.5558 1.992 15.9105 2.144 16.1771 2.448C16.4438 2.752 16.5771 3.16533 16.5771 3.688C16.5771 4.14133 16.4971 4.54933 16.3371 4.912C16.1771 5.27467 15.9478 5.56267 15.6491 5.776C15.3558 5.984 15.0065 6.088 14.6011 6.088C14.3345 6.088 14.0945 6.032 13.8811 5.92C13.6731 5.80267 13.5158 5.63467 13.4091 5.416L13.0891 7.44H11.8811ZM14.3531 5.184C14.6731 5.184 14.9211 5.048 15.0971 4.776C15.2731 4.504 15.3611 4.16267 15.3611 3.752C15.3611 3.47467 15.2945 3.264 15.1611 3.12C15.0331 2.97067 14.8545 2.896 14.6251 2.896C14.3051 2.896 14.0571 3.032 13.8811 3.304C13.7051 3.576 13.6171 3.91467 13.6171 4.32C13.6171 4.59733 13.6811 4.81067 13.8091 4.96C13.9425 5.10933 14.1238 5.184 14.3531 5.184ZM18.4839 6.088C17.9933 6.088 17.6413 5.95467 17.4279 5.688C17.2146 5.416 17.1479 5.024 17.2279 4.512L17.8839 0.36H19.0919L18.4359 4.496C18.3773 4.90667 18.5319 5.112 18.8999 5.112C18.9533 5.112 19.0093 5.10933 19.0679 5.104C19.1266 5.09867 19.1853 5.09333 19.2439 5.088L19.0839 6.008C18.9079 6.06133 18.7079 6.088 18.4839 6.088ZM21.6529 6.088C21.0449 6.088 20.5703 5.92533 20.2289 5.6C19.8929 5.26933 19.7249 4.82933 19.7249 4.28C19.7249 3.79467 19.8289 3.38133 20.0369 3.04C20.2449 2.69867 20.5196 2.44 20.8609 2.264C21.2076 2.08267 21.5783 1.992 21.9729 1.992C22.5809 1.992 23.0556 2.15733 23.3969 2.488C23.7383 2.81333 23.9089 3.248 23.9089 3.792C23.9089 4.28267 23.8023 4.69867 23.5889 5.04C23.3809 5.38133 23.1063 5.64267 22.7649 5.824C22.4236 6 22.0529 6.088 21.6529 6.088ZM21.6849 5.184C21.9996 5.184 22.2449 5.048 22.4209 4.776C22.6023 4.504 22.6929 4.16267 22.6929 3.752C22.6929 3.47467 22.6263 3.264 22.4929 3.12C22.3596 2.97067 22.1783 2.896 21.9489 2.896C21.6289 2.896 21.3809 3.032 21.2049 3.304C21.0289 3.576 20.9409 3.91467 20.9409 4.32C20.9409 4.59733 21.0049 4.81067 21.1329 4.96C21.2663 5.10933 21.4503 5.184 21.6849 5.184ZM24.3021 7.44L25.3261 5.784L24.2941 2.072H25.5101L26.0941 4.568L27.5101 2.072H28.7581L25.5341 7.44H24.3021ZM32.2701 1.312L32.4461 0.184H33.7421L33.5581 1.312H32.2701ZM28.8701 6L29.3581 2.976H28.6141L28.7501 2.072H29.4941L29.5181 1.952C29.5927 1.472 29.7874 1.09067 30.1021 0.808C30.4167 0.525333 30.9074 0.368 31.5741 0.336L32.0381 0.312L32.0061 1.192L31.6301 1.216C31.3421 1.232 31.1261 1.296 30.9821 1.408C30.8434 1.51467 30.7581 1.68267 30.7261 1.912L30.7021 2.072H33.3901L32.7661 6H31.5581L32.0381 2.976H30.5661L30.0781 6H28.8701ZM35.8271 6.088C35.4164 6.088 35.0591 6.01333 34.7551 5.864C34.4511 5.70933 34.2164 5.49867 34.0511 5.232C33.8857 4.96 33.8031 4.64267 33.8031 4.28C33.8031 3.832 33.8964 3.43733 34.0831 3.096C34.2751 2.74933 34.5364 2.48 34.8671 2.288C35.2031 2.09067 35.5844 1.992 36.0111 1.992C36.4484 1.992 36.7977 2.088 37.0591 2.28C37.3204 2.46667 37.5017 2.72 37.6031 3.04C37.7044 3.35467 37.7311 3.704 37.6831 4.088L37.6511 4.296H34.9231C34.9284 4.57867 35.0191 4.79733 35.1951 4.952C35.3711 5.10667 35.6217 5.184 35.9471 5.184C36.1711 5.184 36.3871 5.152 36.5951 5.088C36.8084 5.024 36.9977 4.93067 37.1631 4.808L37.4271 5.6C37.2351 5.74933 36.9977 5.86933 36.7151 5.96C36.4324 6.04533 36.1364 6.088 35.8271 6.088ZM36.0031 2.792C35.7151 2.792 35.4911 2.88 35.3311 3.056C35.1711 3.22667 35.0644 3.432 35.0111 3.672H36.7551C36.7711 3.42133 36.7177 3.21333 36.5951 3.048C36.4777 2.87733 36.2804 2.792 36.0031 2.792ZM39.6497 6.088C39.207 6.088 38.8524 5.936 38.5857 5.632C38.319 5.32267 38.1857 4.90667 38.1857 4.384C38.1857 3.93067 38.2657 3.52533 38.4257 3.168C38.5857 2.80533 38.8124 2.52 39.1057 2.312C39.4044 2.09867 39.7537 1.992 40.1537 1.992C40.4257 1.992 40.6657 2.05067 40.8737 2.168C41.087 2.28 41.247 2.448 41.3537 2.672L41.7217 0.36H42.9297L42.0337 6H40.8497L40.9457 5.408C40.8017 5.62133 40.6177 5.78933 40.3937 5.912C40.1697 6.02933 39.9217 6.088 39.6497 6.088ZM40.1377 5.184C40.4577 5.184 40.7057 5.048 40.8817 4.776C41.0577 4.504 41.1457 4.16267 41.1457 3.752C41.1457 3.47467 41.079 3.264 40.9457 3.12C40.8177 2.97067 40.639 2.896 40.4097 2.896C40.0897 2.896 39.8417 3.032 39.6657 3.304C39.4897 3.576 39.4017 3.91467 39.4017 4.32C39.4017 4.59733 39.4657 4.81067 39.5937 4.96C39.727 5.10933 39.9084 5.184 40.1377 5.184Z" fill="white"/>
</svg>
