<svg width="171" height="30" viewBox="0 0 171 30" fill="none" xmlns="http://www.w3.org/2000/svg">
<path d="M0.056 24L3.608 1.44H19.064L18.456 5.312H7.736L6.904 10.592H16.92L16.312 14.496H6.296L5.4 20.128H16.088L15.48 24H0.056ZM19.047 24L21.543 8.288H26.279L25.895 10.624C26.5137 9.70667 27.2603 9.03467 28.135 8.608C29.0097 8.18133 29.9163 7.968 30.855 7.968C33.0097 7.968 34.439 8.96 35.143 10.944C36.3163 8.96 38.1403 7.968 40.615 7.968C42.2577 7.968 43.5163 8.50133 44.391 9.568C45.287 10.6347 45.5537 12.3307 45.191 14.656L43.719 24H38.887L40.359 14.688C40.6577 12.704 40.071 11.712 38.599 11.712C37.6817 11.712 36.9243 12.0533 36.327 12.736C35.7297 13.4187 35.335 14.3787 35.143 15.616L33.799 24H28.967L30.439 14.688C30.759 12.704 30.1723 11.712 28.679 11.712C27.783 11.712 27.0257 12.0533 26.407 12.736C25.8097 13.4187 25.415 14.3787 25.223 15.616L23.879 24H19.047ZM46.5245 29.76L49.9165 8.288H54.6525L54.3005 10.592C54.8765 9.76 55.6018 9.12 56.4765 8.672C57.3725 8.20267 58.3645 7.968 59.4525 7.968C61.2232 7.968 62.6418 8.576 63.7085 9.792C64.7752 11.008 65.3085 12.6613 65.3085 14.752C65.3085 16.5653 64.9885 18.1973 64.3485 19.648C63.7085 21.0987 62.7912 22.2507 61.5965 23.104C60.4232 23.936 59.0258 24.352 57.4045 24.352C56.3378 24.352 55.3778 24.128 54.5245 23.68C53.6925 23.2107 53.0632 22.5387 52.6365 21.664L51.3565 29.76H46.5245ZM56.4125 20.736C57.6925 20.736 58.6845 20.192 59.3885 19.104C60.0925 18.016 60.4445 16.6507 60.4445 15.008C60.4445 13.8987 60.1778 13.056 59.6445 12.48C59.1325 11.8827 58.4178 11.584 57.5005 11.584C56.2205 11.584 55.2285 12.128 54.5245 13.216C53.8205 14.304 53.4685 15.6587 53.4685 17.28C53.4685 18.3893 53.7245 19.2427 54.2365 19.84C54.7698 20.4373 55.4952 20.736 56.4125 20.736ZM72.9358 24.352C70.9731 24.352 69.5651 23.8187 68.7118 22.752C67.8584 21.664 67.5918 20.096 67.9118 18.048L70.5358 1.44H75.3678L72.7438 17.984C72.5091 19.6267 73.1278 20.448 74.5998 20.448C74.8131 20.448 75.0371 20.4373 75.2718 20.416C75.5064 20.3947 75.7411 20.3733 75.9758 20.352L75.3358 24.032C74.6318 24.2453 73.8318 24.352 72.9358 24.352ZM85.6118 24.352C83.1798 24.352 81.2811 23.7013 79.9158 22.4C78.5718 21.0773 77.8997 19.3173 77.8997 17.12C77.8997 15.1787 78.3158 13.5253 79.1478 12.16C79.9798 10.7947 81.0784 9.76 82.4438 9.056C83.8304 8.33067 85.3131 7.968 86.8918 7.968C89.3238 7.968 91.2224 8.62933 92.5878 9.952C93.9531 11.2533 94.6358 12.992 94.6358 15.168C94.6358 17.1307 94.2091 18.7947 93.3558 20.16C92.5238 21.5253 91.4251 22.5707 90.0598 23.296C88.6944 24 87.2118 24.352 85.6118 24.352ZM85.7398 20.736C86.9984 20.736 87.9798 20.192 88.6838 19.104C89.4091 18.016 89.7718 16.6507 89.7718 15.008C89.7718 13.8987 89.5051 13.056 88.9718 12.48C88.4384 11.8827 87.7131 11.584 86.7958 11.584C85.5158 11.584 84.5238 12.128 83.8198 13.216C83.1158 14.304 82.7638 15.6587 82.7638 17.28C82.7638 18.3893 83.0198 19.2427 83.5318 19.84C84.0651 20.4373 84.8011 20.736 85.7398 20.736ZM96.2085 29.76L100.305 23.136L96.1765 8.288H101.041L103.377 18.272L109.041 8.288H114.033L101.137 29.76H96.2085ZM128.08 5.248L128.784 0.735998H133.968L133.232 5.248H128.08ZM114.48 24L116.432 11.904H113.456L114 8.288H116.976L117.072 7.808C117.371 5.888 118.15 4.36267 119.408 3.232C120.667 2.10133 122.63 1.472 125.296 1.344L127.152 1.248L127.024 4.768L125.52 4.864C124.368 4.928 123.504 5.184 122.928 5.632C122.374 6.05867 122.032 6.73067 121.904 7.648L121.808 8.288H132.56L130.064 24H125.232L127.152 11.904H121.264L119.312 24H114.48ZM142.308 24.352C140.666 24.352 139.236 24.0533 138.02 23.456C136.804 22.8373 135.866 21.9947 135.204 20.928C134.543 19.84 134.212 18.5707 134.212 17.12C134.212 15.328 134.586 13.7493 135.332 12.384C136.1 10.9973 137.146 9.92 138.468 9.152C139.812 8.36267 141.338 7.968 143.044 7.968C144.794 7.968 146.191 8.352 147.236 9.12C148.282 9.86667 149.007 10.88 149.412 12.16C149.818 13.4187 149.924 14.816 149.732 16.352L149.604 17.184H138.692C138.714 18.3147 139.076 19.1893 139.78 19.808C140.484 20.4267 141.487 20.736 142.788 20.736C143.684 20.736 144.548 20.608 145.38 20.352C146.234 20.096 146.991 19.7227 147.652 19.232L148.708 22.4C147.94 22.9973 146.991 23.4773 145.86 23.84C144.73 24.1813 143.546 24.352 142.308 24.352ZM143.012 11.168C141.86 11.168 140.964 11.52 140.324 12.224C139.684 12.9067 139.258 13.728 139.044 14.688H146.02C146.084 13.6853 145.871 12.8533 145.38 12.192C144.911 11.5093 144.122 11.168 143.012 11.168ZM157.599 24.352C155.828 24.352 154.409 23.744 153.343 22.528C152.276 21.2907 151.743 19.6267 151.743 17.536C151.743 15.7227 152.063 14.1013 152.703 12.672C153.343 11.2213 154.249 10.08 155.423 9.248C156.617 8.39467 158.015 7.968 159.615 7.968C160.703 7.968 161.663 8.20267 162.495 8.672C163.348 9.12 163.988 9.792 164.415 10.688L165.887 1.44H170.719L167.135 24H162.399L162.783 21.632C162.207 22.4853 161.471 23.1573 160.575 23.648C159.679 24.1173 158.687 24.352 157.599 24.352ZM159.551 20.736C160.831 20.736 161.823 20.192 162.527 19.104C163.231 18.016 163.583 16.6507 163.583 15.008C163.583 13.8987 163.316 13.056 162.783 12.48C162.271 11.8827 161.556 11.584 160.639 11.584C159.359 11.584 158.367 12.128 157.663 13.216C156.959 14.304 156.607 15.6587 156.607 17.28C156.607 18.3893 156.863 19.2427 157.375 19.84C157.908 20.4373 158.633 20.736 159.551 20.736Z" fill="#111111"/>
</svg>
