<svg width="256" height="256" viewBox="0 0 256 256" fill="none" xmlns="http://www.w3.org/2000/svg">
<g clip-path="url(#clip0_6_40)">
<rect width="256" height="256" rx="128" fill="#DD0000"/>
<path d="M69.224 170L83.432 79.76H145.256L142.824 95.248H99.944L96.616 116.368H136.68L134.248 131.984H94.184L90.6 154.512H133.352L130.92 170H69.224ZM149.171 170L156.979 121.616H145.075L147.251 107.152H159.155L159.539 105.232C160.734 97.552 163.848 91.4507 168.883 86.928C173.918 82.32 181.768 79.8027 192.435 79.376L200.627 78.992L200.243 93.072L193.331 93.456C188.723 93.712 185.267 94.736 182.963 96.528C180.744 98.2347 179.379 100.923 178.867 104.592L178.483 107.152H194.611L192.307 121.616H176.307L168.499 170H149.171Z" fill="white"/>
</g>
<defs>
<clipPath id="clip0_6_40">
<rect width="256" height="256" fill="white"/>
</clipPath>
</defs>
</svg>
