<svg width="1677" height="370" viewBox="0 0 1677 370" fill="none" xmlns="http://www.w3.org/2000/svg">
<path d="M23.44 368.584C16.272 368.584 10.64 366.536 6.544 362.44C2.448 358.344 0.400002 352.371 0.400002 344.52V135.624C0.400002 127.773 2.448 121.971 6.544 118.216C10.64 114.12 16.272 112.072 23.44 112.072C30.608 112.072 36.0693 114.12 39.824 118.216C43.92 121.971 45.968 127.773 45.968 135.624V179.144L40.336 169.928C46.8213 151.155 57.232 136.648 71.568 126.408C86.2453 116.168 103.653 111.048 123.792 111.048C144.955 111.048 162.021 116.168 174.992 126.408C187.963 136.307 196.667 151.496 201.104 171.976H193.936C200.08 153.203 211.003 138.355 226.704 127.432C242.747 116.509 261.349 111.048 282.512 111.048C301.285 111.048 316.645 114.803 328.592 122.312C340.88 129.48 350.096 140.403 356.24 155.08C362.384 169.416 365.456 187.848 365.456 210.376V344.52C365.456 352.371 363.408 358.344 359.312 362.44C355.216 366.536 349.584 368.584 342.416 368.584C334.907 368.584 329.104 366.536 325.008 362.44C320.912 358.344 318.864 352.371 318.864 344.52V212.424C318.864 190.579 315.109 174.536 307.6 164.296C300.091 154.056 287.461 148.936 269.712 148.936C250.256 148.936 234.725 155.763 223.12 169.416C211.856 182.728 206.224 201.16 206.224 224.712V344.52C206.224 352.371 204.176 358.344 200.08 362.44C196.325 366.536 190.693 368.584 183.184 368.584C175.675 368.584 169.872 366.536 165.776 362.44C161.68 358.344 159.632 352.371 159.632 344.52V212.424C159.632 190.579 155.877 174.536 148.368 164.296C140.859 154.056 128.229 148.936 110.48 148.936C91.024 148.936 75.4933 155.763 63.888 169.416C52.624 182.728 46.992 201.16 46.992 224.712V344.52C46.992 360.563 39.1413 368.584 23.44 368.584ZM529.464 369.608C509.325 369.608 492.429 365.853 478.776 358.344C465.464 350.835 455.565 339.741 449.08 325.064C442.595 310.387 439.352 291.955 439.352 269.768V135.624C439.352 127.773 441.229 121.971 444.984 118.216C449.08 114.12 454.883 112.072 462.392 112.072C469.901 112.072 475.704 114.12 479.8 118.216C483.896 121.971 485.944 127.773 485.944 135.624V269.768C485.944 290.931 490.211 306.632 498.744 316.872C507.277 326.771 520.76 331.72 539.192 331.72C559.672 331.72 576.227 324.893 588.856 311.24C601.827 297.587 608.312 279.496 608.312 256.968V135.624C608.312 127.773 610.189 121.971 613.944 118.216C618.04 114.12 623.843 112.072 631.352 112.072C638.861 112.072 644.664 114.12 648.76 118.216C652.856 121.971 654.904 127.773 654.904 135.624V344.52C654.904 360.563 647.395 368.584 632.376 368.584C624.867 368.584 619.064 366.536 614.968 362.44C611.213 358.344 609.336 352.371 609.336 344.52V299.976L615.992 308.68C609.165 328.477 598.072 343.667 582.712 354.248C567.693 364.488 549.944 369.608 529.464 369.608ZM767.764 368.584C760.255 368.584 754.452 366.536 750.356 362.44C746.26 358.344 744.212 352.371 744.212 344.52V151.496H713.492C707.348 151.496 702.569 149.96 699.156 146.888C695.743 143.475 694.036 139.037 694.036 133.576C694.036 127.773 695.743 123.336 699.156 120.264C702.569 117.192 707.348 115.656 713.492 115.656H757.012L744.212 127.944V109C744.212 75.8907 752.233 50.8027 768.276 33.736C784.66 16.328 808.553 6.25866 839.956 3.52798L855.828 2.504C860.948 1.82132 865.044 2.67465 868.116 5.064C871.188 7.11199 873.236 9.84265 874.26 13.256C875.284 16.6693 875.284 20.2533 874.26 24.008C873.577 27.4213 872.041 30.4933 869.652 33.224C867.263 35.9547 864.191 37.4906 860.436 37.832L849.172 38.344C828.692 40.0507 813.844 46.1947 804.628 56.776C795.412 67.016 790.804 82.376 790.804 102.856V123.336L784.148 115.656H843.028C849.513 115.656 854.463 117.192 857.876 120.264C861.289 123.336 862.996 127.773 862.996 133.576C862.996 139.037 861.289 143.475 857.876 146.888C854.463 149.96 849.513 151.496 843.028 151.496H790.804V344.52C790.804 360.563 783.124 368.584 767.764 368.584ZM982.292 369.608C956.692 369.608 937.236 362.099 923.924 347.08C910.612 331.72 903.956 309.704 903.956 281.032V24.008C903.956 16.1573 906.004 10.3547 910.1 6.59998C914.196 2.50399 919.828 0.455994 926.996 0.455994C934.505 0.455994 940.308 2.50399 944.404 6.59998C948.5 10.3547 950.548 16.1573 950.548 24.008V277.448C950.548 295.197 954.132 308.509 961.3 317.384C968.809 325.917 979.391 330.184 993.044 330.184C996.116 330.184 998.847 330.184 1001.24 330.184C1003.63 329.843 1006.01 329.501 1008.4 329.16C1012.16 328.819 1014.89 329.843 1016.6 332.232C1018.3 334.621 1019.16 339.4 1019.16 346.568C1019.16 353.053 1017.62 358.173 1014.55 361.928C1011.82 365.341 1007.21 367.56 1000.72 368.584C997.652 368.925 994.58 369.096 991.508 369.096C988.436 369.437 985.364 369.608 982.292 369.608ZM1137.24 369.608C1120.17 369.608 1104.64 366.195 1090.64 359.368C1076.99 352.541 1066.24 343.325 1058.39 331.72C1050.88 320.115 1047.12 307.144 1047.12 292.808C1047.12 274.376 1051.73 259.869 1060.95 249.288C1070.16 238.707 1085.69 231.197 1107.54 226.76C1129.39 221.981 1158.74 219.592 1195.6 219.592H1219.67V249.288H1196.63C1170.35 249.288 1149.52 250.483 1134.16 252.872C1119.15 255.261 1108.56 259.528 1102.42 265.672C1096.28 271.475 1093.2 279.667 1093.2 290.248C1093.2 303.56 1097.81 314.483 1107.03 323.016C1116.59 331.549 1129.56 335.816 1145.94 335.816C1158.91 335.816 1170.35 332.744 1180.24 326.6C1190.14 320.115 1197.99 311.581 1203.8 301C1209.6 290.077 1212.5 277.619 1212.5 263.624V204.744C1212.5 184.605 1208.4 170.099 1200.21 161.224C1192.02 152.008 1178.2 147.4 1158.74 147.4C1147.48 147.4 1135.87 148.936 1123.92 152.008C1111.98 155.08 1099.52 159.859 1086.55 166.344C1081.43 168.733 1076.99 169.587 1073.24 168.904C1069.48 167.88 1066.41 165.832 1064.02 162.76C1061.97 159.347 1060.78 155.763 1060.44 152.008C1060.44 147.912 1061.29 143.987 1063 140.232C1065.04 136.477 1068.46 133.747 1073.24 132.04C1088.25 124.531 1103.1 119.24 1117.78 116.168C1132.8 112.755 1146.79 111.048 1159.76 111.048C1181.95 111.048 1200.21 114.632 1214.55 121.8C1228.88 128.627 1239.64 139.379 1246.8 154.056C1253.97 168.392 1257.56 186.824 1257.56 209.352V344.52C1257.56 352.371 1255.68 358.344 1251.92 362.44C1248.17 366.536 1242.71 368.584 1235.54 368.584C1228.71 368.584 1223.25 366.536 1219.16 362.44C1215.4 358.344 1213.52 352.371 1213.52 344.52V308.168H1218.13C1215.4 320.797 1210.28 331.72 1202.77 340.936C1195.26 350.152 1185.88 357.32 1174.61 362.44C1163.69 367.219 1151.23 369.608 1137.24 369.608ZM1353.92 368.584C1346.75 368.584 1341.12 366.536 1337.02 362.44C1332.92 358.344 1330.88 352.371 1330.88 344.52V24.008C1330.88 16.1573 1332.92 10.3547 1337.02 6.59998C1341.12 2.50399 1346.75 0.455994 1353.92 0.455994C1361.43 0.455994 1367.23 2.50399 1371.32 6.59998C1375.42 10.3547 1377.47 16.1573 1377.47 24.008V169.928H1370.81C1377.98 150.472 1389.59 135.795 1405.63 125.896C1422.01 115.997 1440.61 111.048 1461.44 111.048C1481.57 111.048 1498.13 114.803 1511.1 122.312C1524.07 129.48 1533.8 140.403 1540.28 155.08C1546.77 169.757 1550.01 188.189 1550.01 210.376V344.52C1550.01 352.371 1547.96 358.344 1543.87 362.44C1540.11 366.536 1534.48 368.584 1526.97 368.584C1519.46 368.584 1513.66 366.536 1509.56 362.44C1505.47 358.344 1503.42 352.371 1503.42 344.52V212.936C1503.42 190.749 1499.15 174.536 1490.62 164.296C1482.09 154.056 1468.43 148.936 1449.66 148.936C1427.81 148.936 1410.24 155.763 1396.92 169.416C1383.95 182.728 1377.47 200.819 1377.47 223.688V344.52C1377.47 360.563 1369.62 368.584 1353.92 368.584ZM1646.4 367.048C1637.53 367.048 1630.19 364.147 1624.39 358.344C1618.59 352.541 1615.68 345.203 1615.68 336.328C1615.68 327.453 1618.59 320.285 1624.39 314.824C1630.19 309.363 1637.53 306.632 1646.4 306.632C1655.96 306.632 1663.3 309.363 1668.42 314.824C1673.88 320.285 1676.61 327.453 1676.61 336.328C1676.61 345.203 1673.88 352.541 1668.42 358.344C1663.3 364.147 1655.96 367.048 1646.4 367.048Z" fill="#EEEEEE"/>
</svg>
