<svg width="517" height="261" viewBox="0 0 517 261" fill="none" xmlns="http://www.w3.org/2000/svg">
<path d="M32.048 260.096C21.808 260.096 13.9573 257.365 8.496 251.904C3.03467 246.101 0.304001 237.909 0.304001 227.328V33.792C0.304001 23.2107 3.03467 15.1893 8.496 9.72798C13.9573 4.26666 21.6373 1.536 31.536 1.536C41.4347 1.536 49.1147 4.26666 54.576 9.72798C60.0373 15.1893 62.768 23.2107 62.768 33.792V71.168L57.136 55.808C63.9627 38.7413 74.544 25.2587 88.88 15.36C103.216 5.46132 120.283 0.511993 140.08 0.511993C160.219 0.511993 176.773 5.29066 189.744 14.848C202.715 24.4053 211.76 39.0827 216.88 58.88H209.712C216.539 40.7893 227.803 26.624 243.504 16.384C259.205 5.80266 277.296 0.511993 297.776 0.511993C316.891 0.511993 332.592 4.26666 344.88 11.776C357.509 19.2853 366.896 30.72 373.04 46.08C379.184 61.0987 382.256 80.2133 382.256 103.424V227.328C382.256 237.909 379.355 246.101 373.552 251.904C368.091 257.365 360.24 260.096 350 260.096C339.76 260.096 331.909 257.365 326.448 251.904C320.987 246.101 318.256 237.909 318.256 227.328V105.984C318.256 86.8693 315.013 72.8747 308.528 64C302.384 55.1253 291.803 50.688 276.784 50.688C260.059 50.688 246.917 56.6613 237.36 68.608C227.803 80.2133 223.024 96.4267 223.024 117.248V227.328C223.024 237.909 220.293 246.101 214.832 251.904C209.371 257.365 201.52 260.096 191.28 260.096C181.04 260.096 173.019 257.365 167.216 251.904C161.755 246.101 159.024 237.909 159.024 227.328V105.984C159.024 86.8693 155.781 72.8747 149.296 64C143.152 55.1253 132.741 50.688 118.064 50.688C101.339 50.688 88.1973 56.6613 78.64 68.608C69.0827 80.2133 64.304 96.4267 64.304 117.248V227.328C64.304 249.173 53.552 260.096 32.048 260.096ZM479 258.56C467.395 258.56 458.008 254.976 450.84 247.808C444.013 240.64 440.6 231.424 440.6 220.16C440.6 209.237 444.013 200.363 450.84 193.536C458.008 186.368 467.395 182.784 479 182.784C490.947 182.784 500.163 186.368 506.648 193.536C513.475 200.363 516.888 209.237 516.888 220.16C516.888 231.424 513.475 240.64 506.648 247.808C500.163 254.976 490.947 258.56 479 258.56Z" fill="#EEEEEE"/>
</svg>
