<svg width="256" height="256" viewBox="0 0 256 256" fill="none" xmlns="http://www.w3.org/2000/svg">
<g clip-path="url(#clip0_16_9)">
<path d="M87.8484 125.348C86.384 126.813 86.384 129.187 87.8484 130.652L111.713 154.517C113.178 155.981 115.552 155.981 117.017 154.517C118.481 153.052 118.481 150.678 117.017 149.213L95.8032 128L117.017 106.787C118.481 105.322 118.481 102.948 117.017 101.483C115.552 100.019 113.178 100.019 111.713 101.483L87.8484 125.348ZM150.5 124.25H90.5V131.75H150.5V124.25Z" fill="white"/>
<path d="M165.5 143C165.5 134.716 158.784 128 150.5 128" stroke="white" stroke-width="7.5"/>
<path d="M161.75 150.5C161.75 152.571 163.429 154.25 165.5 154.25C167.571 154.25 169.25 152.571 169.25 150.5H161.75ZM161.75 143V150.5H169.25V143H161.75Z" fill="white"/>
</g>
<defs>
<clipPath id="clip0_16_9">
<rect width="256" height="256" fill="white"/>
</clipPath>
</defs>
</svg>
