<svg width="80" height="80" viewBox="0 0 80 80" fill="none" xmlns="http://www.w3.org/2000/svg">
<path d="M29.2929 39.2929C28.9024 39.6834 28.9024 40.3166 29.2929 40.7071L35.6569 47.0711C36.0474 47.4616 36.6805 47.4616 37.0711 47.0711C37.4616 46.6805 37.4616 46.0474 37.0711 45.6569L31.4142 40L37.0711 34.3431C37.4616 33.9526 37.4616 33.3195 37.0711 32.9289C36.6805 32.5384 36.0474 32.5384 35.6569 32.9289L29.2929 39.2929ZM46 39H30V41H46V39Z" fill="white"/>
<path d="M50 44C50 41.7909 48.2091 40 46 40" stroke="white" stroke-width="2"/>
<path d="M49 46C49 46.5523 49.4477 47 50 47C50.5523 47 51 46.5523 51 46H49ZM49 44V46H51V44H49Z" fill="white"/>
</svg>
